<mxfile host="app.diagrams.net" agent="Mozilla/5.0 (Windows NT 10.0; Win64; x64) AppleWebKit/537.36 (KHTML, like Gecko) Chrome/129.0.0.0 Safari/537.36" version="24.7.17">
  <diagram name="Halaman-1" id="CANV0-t29vp0OC0g97RI">
    <mxGraphModel grid="1" page="1" gridSize="10" guides="1" tooltips="1" connect="1" arrows="1" fold="1" pageScale="1" pageWidth="827" pageHeight="1169" math="0" shadow="0">
      <root>
        <mxCell id="0" />
        <mxCell id="1" parent="0" />
        <mxCell id="I3p1syJn4itOZXmA_7b9-1" value="MEMBERS" style="shape=table;startSize=25;container=1;collapsible=0;childLayout=tableLayout;fixedRows=1;rowLines=1;fontStyle=1;align=center;resizeLast=1;fillColor=#e1d5e7;strokeColor=#9673a6;" vertex="1" parent="1">
          <mxGeometry x="20" y="31" width="338" height="223" as="geometry" />
        </mxCell>
        <mxCell id="I3p1syJn4itOZXmA_7b9-2" style="shape=tableRow;horizontal=0;startSize=0;swimlaneHead=0;swimlaneBody=0;fillColor=none;collapsible=0;dropTarget=0;points=[[0,0.5],[1,0.5]];portConstraint=eastwest;top=0;left=0;right=0;bottom=0;" vertex="1" parent="I3p1syJn4itOZXmA_7b9-1">
          <mxGeometry y="25" width="338" height="22" as="geometry" />
        </mxCell>
        <mxCell id="I3p1syJn4itOZXmA_7b9-3" value="INT" style="shape=partialRectangle;connectable=0;fillColor=none;top=0;left=0;bottom=0;right=0;align=left;spacingLeft=2;overflow=hidden;fontSize=11;" vertex="1" parent="I3p1syJn4itOZXmA_7b9-2">
          <mxGeometry width="42" height="22" as="geometry">
            <mxRectangle width="42" height="22" as="alternateBounds" />
          </mxGeometry>
        </mxCell>
        <mxCell id="I3p1syJn4itOZXmA_7b9-4" value="member_id" style="shape=partialRectangle;connectable=0;fillColor=none;top=0;left=0;bottom=0;right=0;align=left;spacingLeft=2;overflow=hidden;fontSize=11;" vertex="1" parent="I3p1syJn4itOZXmA_7b9-2">
          <mxGeometry x="42" width="104" height="22" as="geometry">
            <mxRectangle width="104" height="22" as="alternateBounds" />
          </mxGeometry>
        </mxCell>
        <mxCell id="I3p1syJn4itOZXmA_7b9-5" value="Primary Key" style="shape=partialRectangle;connectable=0;fillColor=none;top=0;left=0;bottom=0;right=0;align=left;spacingLeft=2;overflow=hidden;fontSize=11;" vertex="1" parent="I3p1syJn4itOZXmA_7b9-2">
          <mxGeometry x="146" width="192" height="22" as="geometry">
            <mxRectangle width="192" height="22" as="alternateBounds" />
          </mxGeometry>
        </mxCell>
        <mxCell id="I3p1syJn4itOZXmA_7b9-6" style="shape=tableRow;horizontal=0;startSize=0;swimlaneHead=0;swimlaneBody=0;fillColor=none;collapsible=0;dropTarget=0;points=[[0,0.5],[1,0.5]];portConstraint=eastwest;top=0;left=0;right=0;bottom=0;" vertex="1" parent="I3p1syJn4itOZXmA_7b9-1">
          <mxGeometry y="47" width="338" height="22" as="geometry" />
        </mxCell>
        <mxCell id="I3p1syJn4itOZXmA_7b9-7" value="VARCHAR" style="shape=partialRectangle;connectable=0;fillColor=none;top=0;left=0;bottom=0;right=0;align=left;spacingLeft=2;overflow=hidden;fontSize=11;" vertex="1" parent="I3p1syJn4itOZXmA_7b9-6">
          <mxGeometry width="42" height="22" as="geometry">
            <mxRectangle width="42" height="22" as="alternateBounds" />
          </mxGeometry>
        </mxCell>
        <mxCell id="I3p1syJn4itOZXmA_7b9-8" value="fullname" style="shape=partialRectangle;connectable=0;fillColor=none;top=0;left=0;bottom=0;right=0;align=left;spacingLeft=2;overflow=hidden;fontSize=11;" vertex="1" parent="I3p1syJn4itOZXmA_7b9-6">
          <mxGeometry x="42" width="104" height="22" as="geometry">
            <mxRectangle width="104" height="22" as="alternateBounds" />
          </mxGeometry>
        </mxCell>
        <mxCell id="I3p1syJn4itOZXmA_7b9-9" value="Full name of member" style="shape=partialRectangle;connectable=0;fillColor=none;top=0;left=0;bottom=0;right=0;align=left;spacingLeft=2;overflow=hidden;fontSize=11;" vertex="1" parent="I3p1syJn4itOZXmA_7b9-6">
          <mxGeometry x="146" width="192" height="22" as="geometry">
            <mxRectangle width="192" height="22" as="alternateBounds" />
          </mxGeometry>
        </mxCell>
        <mxCell id="I3p1syJn4itOZXmA_7b9-10" style="shape=tableRow;horizontal=0;startSize=0;swimlaneHead=0;swimlaneBody=0;fillColor=none;collapsible=0;dropTarget=0;points=[[0,0.5],[1,0.5]];portConstraint=eastwest;top=0;left=0;right=0;bottom=0;" vertex="1" parent="I3p1syJn4itOZXmA_7b9-1">
          <mxGeometry y="69" width="338" height="22" as="geometry" />
        </mxCell>
        <mxCell id="I3p1syJn4itOZXmA_7b9-11" value="VARCHAR" style="shape=partialRectangle;connectable=0;fillColor=none;top=0;left=0;bottom=0;right=0;align=left;spacingLeft=2;overflow=hidden;fontSize=11;" vertex="1" parent="I3p1syJn4itOZXmA_7b9-10">
          <mxGeometry width="42" height="22" as="geometry">
            <mxRectangle width="42" height="22" as="alternateBounds" />
          </mxGeometry>
        </mxCell>
        <mxCell id="I3p1syJn4itOZXmA_7b9-12" value="username" style="shape=partialRectangle;connectable=0;fillColor=none;top=0;left=0;bottom=0;right=0;align=left;spacingLeft=2;overflow=hidden;fontSize=11;" vertex="1" parent="I3p1syJn4itOZXmA_7b9-10">
          <mxGeometry x="42" width="104" height="22" as="geometry">
            <mxRectangle width="104" height="22" as="alternateBounds" />
          </mxGeometry>
        </mxCell>
        <mxCell id="I3p1syJn4itOZXmA_7b9-13" value="Username of member" style="shape=partialRectangle;connectable=0;fillColor=none;top=0;left=0;bottom=0;right=0;align=left;spacingLeft=2;overflow=hidden;fontSize=11;" vertex="1" parent="I3p1syJn4itOZXmA_7b9-10">
          <mxGeometry x="146" width="192" height="22" as="geometry">
            <mxRectangle width="192" height="22" as="alternateBounds" />
          </mxGeometry>
        </mxCell>
        <mxCell id="I3p1syJn4itOZXmA_7b9-14" style="shape=tableRow;horizontal=0;startSize=0;swimlaneHead=0;swimlaneBody=0;fillColor=none;collapsible=0;dropTarget=0;points=[[0,0.5],[1,0.5]];portConstraint=eastwest;top=0;left=0;right=0;bottom=0;" vertex="1" parent="I3p1syJn4itOZXmA_7b9-1">
          <mxGeometry y="91" width="338" height="22" as="geometry" />
        </mxCell>
        <mxCell id="I3p1syJn4itOZXmA_7b9-15" value="VARCHAR" style="shape=partialRectangle;connectable=0;fillColor=none;top=0;left=0;bottom=0;right=0;align=left;spacingLeft=2;overflow=hidden;fontSize=11;" vertex="1" parent="I3p1syJn4itOZXmA_7b9-14">
          <mxGeometry width="42" height="22" as="geometry">
            <mxRectangle width="42" height="22" as="alternateBounds" />
          </mxGeometry>
        </mxCell>
        <mxCell id="I3p1syJn4itOZXmA_7b9-16" value="password" style="shape=partialRectangle;connectable=0;fillColor=none;top=0;left=0;bottom=0;right=0;align=left;spacingLeft=2;overflow=hidden;fontSize=11;" vertex="1" parent="I3p1syJn4itOZXmA_7b9-14">
          <mxGeometry x="42" width="104" height="22" as="geometry">
            <mxRectangle width="104" height="22" as="alternateBounds" />
          </mxGeometry>
        </mxCell>
        <mxCell id="I3p1syJn4itOZXmA_7b9-17" value="Password for member" style="shape=partialRectangle;connectable=0;fillColor=none;top=0;left=0;bottom=0;right=0;align=left;spacingLeft=2;overflow=hidden;fontSize=11;" vertex="1" parent="I3p1syJn4itOZXmA_7b9-14">
          <mxGeometry x="146" width="192" height="22" as="geometry">
            <mxRectangle width="192" height="22" as="alternateBounds" />
          </mxGeometry>
        </mxCell>
        <mxCell id="I3p1syJn4itOZXmA_7b9-18" style="shape=tableRow;horizontal=0;startSize=0;swimlaneHead=0;swimlaneBody=0;fillColor=none;collapsible=0;dropTarget=0;points=[[0,0.5],[1,0.5]];portConstraint=eastwest;top=0;left=0;right=0;bottom=0;" vertex="1" parent="I3p1syJn4itOZXmA_7b9-1">
          <mxGeometry y="113" width="338" height="22" as="geometry" />
        </mxCell>
        <mxCell id="I3p1syJn4itOZXmA_7b9-19" value="VARCHAR" style="shape=partialRectangle;connectable=0;fillColor=none;top=0;left=0;bottom=0;right=0;align=left;spacingLeft=2;overflow=hidden;fontSize=11;" vertex="1" parent="I3p1syJn4itOZXmA_7b9-18">
          <mxGeometry width="42" height="22" as="geometry">
            <mxRectangle width="42" height="22" as="alternateBounds" />
          </mxGeometry>
        </mxCell>
        <mxCell id="I3p1syJn4itOZXmA_7b9-20" value="phone_number" style="shape=partialRectangle;connectable=0;fillColor=none;top=0;left=0;bottom=0;right=0;align=left;spacingLeft=2;overflow=hidden;fontSize=11;" vertex="1" parent="I3p1syJn4itOZXmA_7b9-18">
          <mxGeometry x="42" width="104" height="22" as="geometry">
            <mxRectangle width="104" height="22" as="alternateBounds" />
          </mxGeometry>
        </mxCell>
        <mxCell id="I3p1syJn4itOZXmA_7b9-21" value="Phone number of member" style="shape=partialRectangle;connectable=0;fillColor=none;top=0;left=0;bottom=0;right=0;align=left;spacingLeft=2;overflow=hidden;fontSize=11;" vertex="1" parent="I3p1syJn4itOZXmA_7b9-18">
          <mxGeometry x="146" width="192" height="22" as="geometry">
            <mxRectangle width="192" height="22" as="alternateBounds" />
          </mxGeometry>
        </mxCell>
        <mxCell id="I3p1syJn4itOZXmA_7b9-22" style="shape=tableRow;horizontal=0;startSize=0;swimlaneHead=0;swimlaneBody=0;fillColor=none;collapsible=0;dropTarget=0;points=[[0,0.5],[1,0.5]];portConstraint=eastwest;top=0;left=0;right=0;bottom=0;" vertex="1" parent="I3p1syJn4itOZXmA_7b9-1">
          <mxGeometry y="135" width="338" height="22" as="geometry" />
        </mxCell>
        <mxCell id="I3p1syJn4itOZXmA_7b9-23" value="VARCHAR" style="shape=partialRectangle;connectable=0;fillColor=none;top=0;left=0;bottom=0;right=0;align=left;spacingLeft=2;overflow=hidden;fontSize=11;" vertex="1" parent="I3p1syJn4itOZXmA_7b9-22">
          <mxGeometry width="42" height="22" as="geometry">
            <mxRectangle width="42" height="22" as="alternateBounds" />
          </mxGeometry>
        </mxCell>
        <mxCell id="I3p1syJn4itOZXmA_7b9-24" value="email" style="shape=partialRectangle;connectable=0;fillColor=none;top=0;left=0;bottom=0;right=0;align=left;spacingLeft=2;overflow=hidden;fontSize=11;" vertex="1" parent="I3p1syJn4itOZXmA_7b9-22">
          <mxGeometry x="42" width="104" height="22" as="geometry">
            <mxRectangle width="104" height="22" as="alternateBounds" />
          </mxGeometry>
        </mxCell>
        <mxCell id="I3p1syJn4itOZXmA_7b9-25" value="Email of member" style="shape=partialRectangle;connectable=0;fillColor=none;top=0;left=0;bottom=0;right=0;align=left;spacingLeft=2;overflow=hidden;fontSize=11;" vertex="1" parent="I3p1syJn4itOZXmA_7b9-22">
          <mxGeometry x="146" width="192" height="22" as="geometry">
            <mxRectangle width="192" height="22" as="alternateBounds" />
          </mxGeometry>
        </mxCell>
        <mxCell id="I3p1syJn4itOZXmA_7b9-26" style="shape=tableRow;horizontal=0;startSize=0;swimlaneHead=0;swimlaneBody=0;fillColor=none;collapsible=0;dropTarget=0;points=[[0,0.5],[1,0.5]];portConstraint=eastwest;top=0;left=0;right=0;bottom=0;" vertex="1" parent="I3p1syJn4itOZXmA_7b9-1">
          <mxGeometry y="157" width="338" height="22" as="geometry" />
        </mxCell>
        <mxCell id="I3p1syJn4itOZXmA_7b9-27" value="TEXT" style="shape=partialRectangle;connectable=0;fillColor=none;top=0;left=0;bottom=0;right=0;align=left;spacingLeft=2;overflow=hidden;fontSize=11;" vertex="1" parent="I3p1syJn4itOZXmA_7b9-26">
          <mxGeometry width="42" height="22" as="geometry">
            <mxRectangle width="42" height="22" as="alternateBounds" />
          </mxGeometry>
        </mxCell>
        <mxCell id="I3p1syJn4itOZXmA_7b9-28" value="address" style="shape=partialRectangle;connectable=0;fillColor=none;top=0;left=0;bottom=0;right=0;align=left;spacingLeft=2;overflow=hidden;fontSize=11;" vertex="1" parent="I3p1syJn4itOZXmA_7b9-26">
          <mxGeometry x="42" width="104" height="22" as="geometry">
            <mxRectangle width="104" height="22" as="alternateBounds" />
          </mxGeometry>
        </mxCell>
        <mxCell id="I3p1syJn4itOZXmA_7b9-29" value="Address of member" style="shape=partialRectangle;connectable=0;fillColor=none;top=0;left=0;bottom=0;right=0;align=left;spacingLeft=2;overflow=hidden;fontSize=11;" vertex="1" parent="I3p1syJn4itOZXmA_7b9-26">
          <mxGeometry x="146" width="192" height="22" as="geometry">
            <mxRectangle width="192" height="22" as="alternateBounds" />
          </mxGeometry>
        </mxCell>
        <mxCell id="I3p1syJn4itOZXmA_7b9-30" style="shape=tableRow;horizontal=0;startSize=0;swimlaneHead=0;swimlaneBody=0;fillColor=none;collapsible=0;dropTarget=0;points=[[0,0.5],[1,0.5]];portConstraint=eastwest;top=0;left=0;right=0;bottom=0;" vertex="1" parent="I3p1syJn4itOZXmA_7b9-1">
          <mxGeometry y="179" width="338" height="22" as="geometry" />
        </mxCell>
        <mxCell id="I3p1syJn4itOZXmA_7b9-31" value="DATE" style="shape=partialRectangle;connectable=0;fillColor=none;top=0;left=0;bottom=0;right=0;align=left;spacingLeft=2;overflow=hidden;fontSize=11;" vertex="1" parent="I3p1syJn4itOZXmA_7b9-30">
          <mxGeometry width="42" height="22" as="geometry">
            <mxRectangle width="42" height="22" as="alternateBounds" />
          </mxGeometry>
        </mxCell>
        <mxCell id="I3p1syJn4itOZXmA_7b9-32" value="membership_date" style="shape=partialRectangle;connectable=0;fillColor=none;top=0;left=0;bottom=0;right=0;align=left;spacingLeft=2;overflow=hidden;fontSize=11;" vertex="1" parent="I3p1syJn4itOZXmA_7b9-30">
          <mxGeometry x="42" width="104" height="22" as="geometry">
            <mxRectangle width="104" height="22" as="alternateBounds" />
          </mxGeometry>
        </mxCell>
        <mxCell id="I3p1syJn4itOZXmA_7b9-33" value="Date when member registered" style="shape=partialRectangle;connectable=0;fillColor=none;top=0;left=0;bottom=0;right=0;align=left;spacingLeft=2;overflow=hidden;fontSize=11;" vertex="1" parent="I3p1syJn4itOZXmA_7b9-30">
          <mxGeometry x="146" width="192" height="22" as="geometry">
            <mxRectangle width="192" height="22" as="alternateBounds" />
          </mxGeometry>
        </mxCell>
        <mxCell id="I3p1syJn4itOZXmA_7b9-34" style="shape=tableRow;horizontal=0;startSize=0;swimlaneHead=0;swimlaneBody=0;fillColor=none;collapsible=0;dropTarget=0;points=[[0,0.5],[1,0.5]];portConstraint=eastwest;top=0;left=0;right=0;bottom=0;" vertex="1" parent="I3p1syJn4itOZXmA_7b9-1">
          <mxGeometry y="201" width="338" height="22" as="geometry" />
        </mxCell>
        <mxCell id="I3p1syJn4itOZXmA_7b9-35" value="ENUM" style="shape=partialRectangle;connectable=0;fillColor=none;top=0;left=0;bottom=0;right=0;align=left;spacingLeft=2;overflow=hidden;fontSize=11;" vertex="1" parent="I3p1syJn4itOZXmA_7b9-34">
          <mxGeometry width="42" height="22" as="geometry">
            <mxRectangle width="42" height="22" as="alternateBounds" />
          </mxGeometry>
        </mxCell>
        <mxCell id="I3p1syJn4itOZXmA_7b9-36" value="role" style="shape=partialRectangle;connectable=0;fillColor=none;top=0;left=0;bottom=0;right=0;align=left;spacingLeft=2;overflow=hidden;fontSize=11;" vertex="1" parent="I3p1syJn4itOZXmA_7b9-34">
          <mxGeometry x="42" width="104" height="22" as="geometry">
            <mxRectangle width="104" height="22" as="alternateBounds" />
          </mxGeometry>
        </mxCell>
        <mxCell id="I3p1syJn4itOZXmA_7b9-37" value="Role of member: anggota or admin" style="shape=partialRectangle;connectable=0;fillColor=none;top=0;left=0;bottom=0;right=0;align=left;spacingLeft=2;overflow=hidden;fontSize=11;" vertex="1" parent="I3p1syJn4itOZXmA_7b9-34">
          <mxGeometry x="146" width="192" height="22" as="geometry">
            <mxRectangle width="192" height="22" as="alternateBounds" />
          </mxGeometry>
        </mxCell>
        <mxCell id="I3p1syJn4itOZXmA_7b9-38" value="BOOKS" style="shape=table;startSize=25;container=1;collapsible=0;childLayout=tableLayout;fixedRows=1;rowLines=1;fontStyle=1;align=center;resizeLast=1;fillColor=#e1d5e7;strokeColor=#9673a6;" vertex="1" parent="1">
          <mxGeometry x="458" y="20" width="324" height="245" as="geometry" />
        </mxCell>
        <mxCell id="I3p1syJn4itOZXmA_7b9-39" style="shape=tableRow;horizontal=0;startSize=0;swimlaneHead=0;swimlaneBody=0;fillColor=none;collapsible=0;dropTarget=0;points=[[0,0.5],[1,0.5]];portConstraint=eastwest;top=0;left=0;right=0;bottom=0;" vertex="1" parent="I3p1syJn4itOZXmA_7b9-38">
          <mxGeometry y="25" width="324" height="22" as="geometry" />
        </mxCell>
        <mxCell id="I3p1syJn4itOZXmA_7b9-40" value="INT" style="shape=partialRectangle;connectable=0;fillColor=none;top=0;left=0;bottom=0;right=0;align=left;spacingLeft=2;overflow=hidden;fontSize=11;" vertex="1" parent="I3p1syJn4itOZXmA_7b9-39">
          <mxGeometry width="42" height="22" as="geometry">
            <mxRectangle width="42" height="22" as="alternateBounds" />
          </mxGeometry>
        </mxCell>
        <mxCell id="I3p1syJn4itOZXmA_7b9-41" value="book_id" style="shape=partialRectangle;connectable=0;fillColor=none;top=0;left=0;bottom=0;right=0;align=left;spacingLeft=2;overflow=hidden;fontSize=11;" vertex="1" parent="I3p1syJn4itOZXmA_7b9-39">
          <mxGeometry x="42" width="84" height="22" as="geometry">
            <mxRectangle width="84" height="22" as="alternateBounds" />
          </mxGeometry>
        </mxCell>
        <mxCell id="I3p1syJn4itOZXmA_7b9-42" value="Primary Key" style="shape=partialRectangle;connectable=0;fillColor=none;top=0;left=0;bottom=0;right=0;align=left;spacingLeft=2;overflow=hidden;fontSize=11;" vertex="1" parent="I3p1syJn4itOZXmA_7b9-39">
          <mxGeometry x="126" width="198" height="22" as="geometry">
            <mxRectangle width="198" height="22" as="alternateBounds" />
          </mxGeometry>
        </mxCell>
        <mxCell id="I3p1syJn4itOZXmA_7b9-43" style="shape=tableRow;horizontal=0;startSize=0;swimlaneHead=0;swimlaneBody=0;fillColor=none;collapsible=0;dropTarget=0;points=[[0,0.5],[1,0.5]];portConstraint=eastwest;top=0;left=0;right=0;bottom=0;" vertex="1" parent="I3p1syJn4itOZXmA_7b9-38">
          <mxGeometry y="47" width="324" height="22" as="geometry" />
        </mxCell>
        <mxCell id="I3p1syJn4itOZXmA_7b9-44" value="VARCHAR" style="shape=partialRectangle;connectable=0;fillColor=none;top=0;left=0;bottom=0;right=0;align=left;spacingLeft=2;overflow=hidden;fontSize=11;" vertex="1" parent="I3p1syJn4itOZXmA_7b9-43">
          <mxGeometry width="42" height="22" as="geometry">
            <mxRectangle width="42" height="22" as="alternateBounds" />
          </mxGeometry>
        </mxCell>
        <mxCell id="I3p1syJn4itOZXmA_7b9-45" value="title" style="shape=partialRectangle;connectable=0;fillColor=none;top=0;left=0;bottom=0;right=0;align=left;spacingLeft=2;overflow=hidden;fontSize=11;" vertex="1" parent="I3p1syJn4itOZXmA_7b9-43">
          <mxGeometry x="42" width="84" height="22" as="geometry">
            <mxRectangle width="84" height="22" as="alternateBounds" />
          </mxGeometry>
        </mxCell>
        <mxCell id="I3p1syJn4itOZXmA_7b9-46" value="Title of the book" style="shape=partialRectangle;connectable=0;fillColor=none;top=0;left=0;bottom=0;right=0;align=left;spacingLeft=2;overflow=hidden;fontSize=11;" vertex="1" parent="I3p1syJn4itOZXmA_7b9-43">
          <mxGeometry x="126" width="198" height="22" as="geometry">
            <mxRectangle width="198" height="22" as="alternateBounds" />
          </mxGeometry>
        </mxCell>
        <mxCell id="I3p1syJn4itOZXmA_7b9-47" style="shape=tableRow;horizontal=0;startSize=0;swimlaneHead=0;swimlaneBody=0;fillColor=none;collapsible=0;dropTarget=0;points=[[0,0.5],[1,0.5]];portConstraint=eastwest;top=0;left=0;right=0;bottom=0;" vertex="1" parent="I3p1syJn4itOZXmA_7b9-38">
          <mxGeometry y="69" width="324" height="22" as="geometry" />
        </mxCell>
        <mxCell id="I3p1syJn4itOZXmA_7b9-48" value="VARCHAR" style="shape=partialRectangle;connectable=0;fillColor=none;top=0;left=0;bottom=0;right=0;align=left;spacingLeft=2;overflow=hidden;fontSize=11;" vertex="1" parent="I3p1syJn4itOZXmA_7b9-47">
          <mxGeometry width="42" height="22" as="geometry">
            <mxRectangle width="42" height="22" as="alternateBounds" />
          </mxGeometry>
        </mxCell>
        <mxCell id="I3p1syJn4itOZXmA_7b9-49" value="author" style="shape=partialRectangle;connectable=0;fillColor=none;top=0;left=0;bottom=0;right=0;align=left;spacingLeft=2;overflow=hidden;fontSize=11;" vertex="1" parent="I3p1syJn4itOZXmA_7b9-47">
          <mxGeometry x="42" width="84" height="22" as="geometry">
            <mxRectangle width="84" height="22" as="alternateBounds" />
          </mxGeometry>
        </mxCell>
        <mxCell id="I3p1syJn4itOZXmA_7b9-50" value="Author of the book" style="shape=partialRectangle;connectable=0;fillColor=none;top=0;left=0;bottom=0;right=0;align=left;spacingLeft=2;overflow=hidden;fontSize=11;" vertex="1" parent="I3p1syJn4itOZXmA_7b9-47">
          <mxGeometry x="126" width="198" height="22" as="geometry">
            <mxRectangle width="198" height="22" as="alternateBounds" />
          </mxGeometry>
        </mxCell>
        <mxCell id="I3p1syJn4itOZXmA_7b9-51" style="shape=tableRow;horizontal=0;startSize=0;swimlaneHead=0;swimlaneBody=0;fillColor=none;collapsible=0;dropTarget=0;points=[[0,0.5],[1,0.5]];portConstraint=eastwest;top=0;left=0;right=0;bottom=0;" vertex="1" parent="I3p1syJn4itOZXmA_7b9-38">
          <mxGeometry y="91" width="324" height="22" as="geometry" />
        </mxCell>
        <mxCell id="I3p1syJn4itOZXmA_7b9-52" value="VARCHAR" style="shape=partialRectangle;connectable=0;fillColor=none;top=0;left=0;bottom=0;right=0;align=left;spacingLeft=2;overflow=hidden;fontSize=11;" vertex="1" parent="I3p1syJn4itOZXmA_7b9-51">
          <mxGeometry width="42" height="22" as="geometry">
            <mxRectangle width="42" height="22" as="alternateBounds" />
          </mxGeometry>
        </mxCell>
        <mxCell id="I3p1syJn4itOZXmA_7b9-53" value="publisher" style="shape=partialRectangle;connectable=0;fillColor=none;top=0;left=0;bottom=0;right=0;align=left;spacingLeft=2;overflow=hidden;fontSize=11;" vertex="1" parent="I3p1syJn4itOZXmA_7b9-51">
          <mxGeometry x="42" width="84" height="22" as="geometry">
            <mxRectangle width="84" height="22" as="alternateBounds" />
          </mxGeometry>
        </mxCell>
        <mxCell id="I3p1syJn4itOZXmA_7b9-54" value="Publisher of the book" style="shape=partialRectangle;connectable=0;fillColor=none;top=0;left=0;bottom=0;right=0;align=left;spacingLeft=2;overflow=hidden;fontSize=11;" vertex="1" parent="I3p1syJn4itOZXmA_7b9-51">
          <mxGeometry x="126" width="198" height="22" as="geometry">
            <mxRectangle width="198" height="22" as="alternateBounds" />
          </mxGeometry>
        </mxCell>
        <mxCell id="I3p1syJn4itOZXmA_7b9-55" style="shape=tableRow;horizontal=0;startSize=0;swimlaneHead=0;swimlaneBody=0;fillColor=none;collapsible=0;dropTarget=0;points=[[0,0.5],[1,0.5]];portConstraint=eastwest;top=0;left=0;right=0;bottom=0;" vertex="1" parent="I3p1syJn4itOZXmA_7b9-38">
          <mxGeometry y="113" width="324" height="22" as="geometry" />
        </mxCell>
        <mxCell id="I3p1syJn4itOZXmA_7b9-56" value="YEAR" style="shape=partialRectangle;connectable=0;fillColor=none;top=0;left=0;bottom=0;right=0;align=left;spacingLeft=2;overflow=hidden;fontSize=11;" vertex="1" parent="I3p1syJn4itOZXmA_7b9-55">
          <mxGeometry width="42" height="22" as="geometry">
            <mxRectangle width="42" height="22" as="alternateBounds" />
          </mxGeometry>
        </mxCell>
        <mxCell id="I3p1syJn4itOZXmA_7b9-57" value="publish_year" style="shape=partialRectangle;connectable=0;fillColor=none;top=0;left=0;bottom=0;right=0;align=left;spacingLeft=2;overflow=hidden;fontSize=11;" vertex="1" parent="I3p1syJn4itOZXmA_7b9-55">
          <mxGeometry x="42" width="84" height="22" as="geometry">
            <mxRectangle width="84" height="22" as="alternateBounds" />
          </mxGeometry>
        </mxCell>
        <mxCell id="I3p1syJn4itOZXmA_7b9-58" value="Year the book was published" style="shape=partialRectangle;connectable=0;fillColor=none;top=0;left=0;bottom=0;right=0;align=left;spacingLeft=2;overflow=hidden;fontSize=11;" vertex="1" parent="I3p1syJn4itOZXmA_7b9-55">
          <mxGeometry x="126" width="198" height="22" as="geometry">
            <mxRectangle width="198" height="22" as="alternateBounds" />
          </mxGeometry>
        </mxCell>
        <mxCell id="I3p1syJn4itOZXmA_7b9-59" style="shape=tableRow;horizontal=0;startSize=0;swimlaneHead=0;swimlaneBody=0;fillColor=none;collapsible=0;dropTarget=0;points=[[0,0.5],[1,0.5]];portConstraint=eastwest;top=0;left=0;right=0;bottom=0;" vertex="1" parent="I3p1syJn4itOZXmA_7b9-38">
          <mxGeometry y="135" width="324" height="22" as="geometry" />
        </mxCell>
        <mxCell id="I3p1syJn4itOZXmA_7b9-60" value="VARCHAR" style="shape=partialRectangle;connectable=0;fillColor=none;top=0;left=0;bottom=0;right=0;align=left;spacingLeft=2;overflow=hidden;fontSize=11;" vertex="1" parent="I3p1syJn4itOZXmA_7b9-59">
          <mxGeometry width="42" height="22" as="geometry">
            <mxRectangle width="42" height="22" as="alternateBounds" />
          </mxGeometry>
        </mxCell>
        <mxCell id="I3p1syJn4itOZXmA_7b9-61" value="genre" style="shape=partialRectangle;connectable=0;fillColor=none;top=0;left=0;bottom=0;right=0;align=left;spacingLeft=2;overflow=hidden;fontSize=11;" vertex="1" parent="I3p1syJn4itOZXmA_7b9-59">
          <mxGeometry x="42" width="84" height="22" as="geometry">
            <mxRectangle width="84" height="22" as="alternateBounds" />
          </mxGeometry>
        </mxCell>
        <mxCell id="I3p1syJn4itOZXmA_7b9-62" value="Genre of the book" style="shape=partialRectangle;connectable=0;fillColor=none;top=0;left=0;bottom=0;right=0;align=left;spacingLeft=2;overflow=hidden;fontSize=11;" vertex="1" parent="I3p1syJn4itOZXmA_7b9-59">
          <mxGeometry x="126" width="198" height="22" as="geometry">
            <mxRectangle width="198" height="22" as="alternateBounds" />
          </mxGeometry>
        </mxCell>
        <mxCell id="I3p1syJn4itOZXmA_7b9-63" style="shape=tableRow;horizontal=0;startSize=0;swimlaneHead=0;swimlaneBody=0;fillColor=none;collapsible=0;dropTarget=0;points=[[0,0.5],[1,0.5]];portConstraint=eastwest;top=0;left=0;right=0;bottom=0;" vertex="1" parent="I3p1syJn4itOZXmA_7b9-38">
          <mxGeometry y="157" width="324" height="22" as="geometry" />
        </mxCell>
        <mxCell id="I3p1syJn4itOZXmA_7b9-64" value="VARCHAR" style="shape=partialRectangle;connectable=0;fillColor=none;top=0;left=0;bottom=0;right=0;align=left;spacingLeft=2;overflow=hidden;fontSize=11;" vertex="1" parent="I3p1syJn4itOZXmA_7b9-63">
          <mxGeometry width="42" height="22" as="geometry">
            <mxRectangle width="42" height="22" as="alternateBounds" />
          </mxGeometry>
        </mxCell>
        <mxCell id="I3p1syJn4itOZXmA_7b9-65" value="language" style="shape=partialRectangle;connectable=0;fillColor=none;top=0;left=0;bottom=0;right=0;align=left;spacingLeft=2;overflow=hidden;fontSize=11;" vertex="1" parent="I3p1syJn4itOZXmA_7b9-63">
          <mxGeometry x="42" width="84" height="22" as="geometry">
            <mxRectangle width="84" height="22" as="alternateBounds" />
          </mxGeometry>
        </mxCell>
        <mxCell id="I3p1syJn4itOZXmA_7b9-66" value="Language of the book" style="shape=partialRectangle;connectable=0;fillColor=none;top=0;left=0;bottom=0;right=0;align=left;spacingLeft=2;overflow=hidden;fontSize=11;" vertex="1" parent="I3p1syJn4itOZXmA_7b9-63">
          <mxGeometry x="126" width="198" height="22" as="geometry">
            <mxRectangle width="198" height="22" as="alternateBounds" />
          </mxGeometry>
        </mxCell>
        <mxCell id="I3p1syJn4itOZXmA_7b9-67" style="shape=tableRow;horizontal=0;startSize=0;swimlaneHead=0;swimlaneBody=0;fillColor=none;collapsible=0;dropTarget=0;points=[[0,0.5],[1,0.5]];portConstraint=eastwest;top=0;left=0;right=0;bottom=0;" vertex="1" parent="I3p1syJn4itOZXmA_7b9-38">
          <mxGeometry y="179" width="324" height="22" as="geometry" />
        </mxCell>
        <mxCell id="I3p1syJn4itOZXmA_7b9-68" value="INT" style="shape=partialRectangle;connectable=0;fillColor=none;top=0;left=0;bottom=0;right=0;align=left;spacingLeft=2;overflow=hidden;fontSize=11;" vertex="1" parent="I3p1syJn4itOZXmA_7b9-67">
          <mxGeometry width="42" height="22" as="geometry">
            <mxRectangle width="42" height="22" as="alternateBounds" />
          </mxGeometry>
        </mxCell>
        <mxCell id="I3p1syJn4itOZXmA_7b9-69" value="total_pages" style="shape=partialRectangle;connectable=0;fillColor=none;top=0;left=0;bottom=0;right=0;align=left;spacingLeft=2;overflow=hidden;fontSize=11;" vertex="1" parent="I3p1syJn4itOZXmA_7b9-67">
          <mxGeometry x="42" width="84" height="22" as="geometry">
            <mxRectangle width="84" height="22" as="alternateBounds" />
          </mxGeometry>
        </mxCell>
        <mxCell id="I3p1syJn4itOZXmA_7b9-70" value="Total pages in the book" style="shape=partialRectangle;connectable=0;fillColor=none;top=0;left=0;bottom=0;right=0;align=left;spacingLeft=2;overflow=hidden;fontSize=11;" vertex="1" parent="I3p1syJn4itOZXmA_7b9-67">
          <mxGeometry x="126" width="198" height="22" as="geometry">
            <mxRectangle width="198" height="22" as="alternateBounds" />
          </mxGeometry>
        </mxCell>
        <mxCell id="I3p1syJn4itOZXmA_7b9-71" style="shape=tableRow;horizontal=0;startSize=0;swimlaneHead=0;swimlaneBody=0;fillColor=none;collapsible=0;dropTarget=0;points=[[0,0.5],[1,0.5]];portConstraint=eastwest;top=0;left=0;right=0;bottom=0;" vertex="1" parent="I3p1syJn4itOZXmA_7b9-38">
          <mxGeometry y="201" width="324" height="22" as="geometry" />
        </mxCell>
        <mxCell id="I3p1syJn4itOZXmA_7b9-72" value="INT" style="shape=partialRectangle;connectable=0;fillColor=none;top=0;left=0;bottom=0;right=0;align=left;spacingLeft=2;overflow=hidden;fontSize=11;" vertex="1" parent="I3p1syJn4itOZXmA_7b9-71">
          <mxGeometry width="42" height="22" as="geometry">
            <mxRectangle width="42" height="22" as="alternateBounds" />
          </mxGeometry>
        </mxCell>
        <mxCell id="I3p1syJn4itOZXmA_7b9-73" value="stock" style="shape=partialRectangle;connectable=0;fillColor=none;top=0;left=0;bottom=0;right=0;align=left;spacingLeft=2;overflow=hidden;fontSize=11;" vertex="1" parent="I3p1syJn4itOZXmA_7b9-71">
          <mxGeometry x="42" width="84" height="22" as="geometry">
            <mxRectangle width="84" height="22" as="alternateBounds" />
          </mxGeometry>
        </mxCell>
        <mxCell id="I3p1syJn4itOZXmA_7b9-74" value="Number of copies available" style="shape=partialRectangle;connectable=0;fillColor=none;top=0;left=0;bottom=0;right=0;align=left;spacingLeft=2;overflow=hidden;fontSize=11;" vertex="1" parent="I3p1syJn4itOZXmA_7b9-71">
          <mxGeometry x="126" width="198" height="22" as="geometry">
            <mxRectangle width="198" height="22" as="alternateBounds" />
          </mxGeometry>
        </mxCell>
        <mxCell id="I3p1syJn4itOZXmA_7b9-75" style="shape=tableRow;horizontal=0;startSize=0;swimlaneHead=0;swimlaneBody=0;fillColor=none;collapsible=0;dropTarget=0;points=[[0,0.5],[1,0.5]];portConstraint=eastwest;top=0;left=0;right=0;bottom=0;" vertex="1" parent="I3p1syJn4itOZXmA_7b9-38">
          <mxGeometry y="223" width="324" height="22" as="geometry" />
        </mxCell>
        <mxCell id="I3p1syJn4itOZXmA_7b9-76" value="VARCHAR" style="shape=partialRectangle;connectable=0;fillColor=none;top=0;left=0;bottom=0;right=0;align=left;spacingLeft=2;overflow=hidden;fontSize=11;" vertex="1" parent="I3p1syJn4itOZXmA_7b9-75">
          <mxGeometry width="42" height="22" as="geometry">
            <mxRectangle width="42" height="22" as="alternateBounds" />
          </mxGeometry>
        </mxCell>
        <mxCell id="I3p1syJn4itOZXmA_7b9-77" value="location_shelf" style="shape=partialRectangle;connectable=0;fillColor=none;top=0;left=0;bottom=0;right=0;align=left;spacingLeft=2;overflow=hidden;fontSize=11;" vertex="1" parent="I3p1syJn4itOZXmA_7b9-75">
          <mxGeometry x="42" width="84" height="22" as="geometry">
            <mxRectangle width="84" height="22" as="alternateBounds" />
          </mxGeometry>
        </mxCell>
        <mxCell id="I3p1syJn4itOZXmA_7b9-78" value="Location of the book on the shelf" style="shape=partialRectangle;connectable=0;fillColor=none;top=0;left=0;bottom=0;right=0;align=left;spacingLeft=2;overflow=hidden;fontSize=11;" vertex="1" parent="I3p1syJn4itOZXmA_7b9-75">
          <mxGeometry x="126" width="198" height="22" as="geometry">
            <mxRectangle width="198" height="22" as="alternateBounds" />
          </mxGeometry>
        </mxCell>
        <mxCell id="I3p1syJn4itOZXmA_7b9-79" value="LOANS" style="shape=table;startSize=25;container=1;collapsible=0;childLayout=tableLayout;fixedRows=1;rowLines=1;fontStyle=1;align=center;resizeLast=1;fillColor=#e1d5e7;strokeColor=#9673a6;" vertex="1" parent="1">
          <mxGeometry x="54" y="364" width="390" height="201" as="geometry" />
        </mxCell>
        <mxCell id="I3p1syJn4itOZXmA_7b9-80" style="shape=tableRow;horizontal=0;startSize=0;swimlaneHead=0;swimlaneBody=0;fillColor=none;collapsible=0;dropTarget=0;points=[[0,0.5],[1,0.5]];portConstraint=eastwest;top=0;left=0;right=0;bottom=0;" vertex="1" parent="I3p1syJn4itOZXmA_7b9-79">
          <mxGeometry y="25" width="390" height="22" as="geometry" />
        </mxCell>
        <mxCell id="I3p1syJn4itOZXmA_7b9-81" value="INT" style="shape=partialRectangle;connectable=0;fillColor=none;top=0;left=0;bottom=0;right=0;align=left;spacingLeft=2;overflow=hidden;fontSize=11;" vertex="1" parent="I3p1syJn4itOZXmA_7b9-80">
          <mxGeometry width="42" height="22" as="geometry">
            <mxRectangle width="42" height="22" as="alternateBounds" />
          </mxGeometry>
        </mxCell>
        <mxCell id="I3p1syJn4itOZXmA_7b9-82" value="loan_id" style="shape=partialRectangle;connectable=0;fillColor=none;top=0;left=0;bottom=0;right=0;align=left;spacingLeft=2;overflow=hidden;fontSize=11;" vertex="1" parent="I3p1syJn4itOZXmA_7b9-80">
          <mxGeometry x="42" width="66" height="22" as="geometry">
            <mxRectangle width="66" height="22" as="alternateBounds" />
          </mxGeometry>
        </mxCell>
        <mxCell id="I3p1syJn4itOZXmA_7b9-83" value="Primary Key" style="shape=partialRectangle;connectable=0;fillColor=none;top=0;left=0;bottom=0;right=0;align=left;spacingLeft=2;overflow=hidden;fontSize=11;" vertex="1" parent="I3p1syJn4itOZXmA_7b9-80">
          <mxGeometry x="108" width="282" height="22" as="geometry">
            <mxRectangle width="282" height="22" as="alternateBounds" />
          </mxGeometry>
        </mxCell>
        <mxCell id="I3p1syJn4itOZXmA_7b9-84" style="shape=tableRow;horizontal=0;startSize=0;swimlaneHead=0;swimlaneBody=0;fillColor=none;collapsible=0;dropTarget=0;points=[[0,0.5],[1,0.5]];portConstraint=eastwest;top=0;left=0;right=0;bottom=0;" vertex="1" parent="I3p1syJn4itOZXmA_7b9-79">
          <mxGeometry y="47" width="390" height="22" as="geometry" />
        </mxCell>
        <mxCell id="I3p1syJn4itOZXmA_7b9-85" value="INT" style="shape=partialRectangle;connectable=0;fillColor=none;top=0;left=0;bottom=0;right=0;align=left;spacingLeft=2;overflow=hidden;fontSize=11;" vertex="1" parent="I3p1syJn4itOZXmA_7b9-84">
          <mxGeometry width="42" height="22" as="geometry">
            <mxRectangle width="42" height="22" as="alternateBounds" />
          </mxGeometry>
        </mxCell>
        <mxCell id="I3p1syJn4itOZXmA_7b9-86" value="member_id" style="shape=partialRectangle;connectable=0;fillColor=none;top=0;left=0;bottom=0;right=0;align=left;spacingLeft=2;overflow=hidden;fontSize=11;" vertex="1" parent="I3p1syJn4itOZXmA_7b9-84">
          <mxGeometry x="42" width="66" height="22" as="geometry">
            <mxRectangle width="66" height="22" as="alternateBounds" />
          </mxGeometry>
        </mxCell>
        <mxCell id="I3p1syJn4itOZXmA_7b9-87" value="Foreign Key referencing MEMBERS" style="shape=partialRectangle;connectable=0;fillColor=none;top=0;left=0;bottom=0;right=0;align=left;spacingLeft=2;overflow=hidden;fontSize=11;" vertex="1" parent="I3p1syJn4itOZXmA_7b9-84">
          <mxGeometry x="108" width="282" height="22" as="geometry">
            <mxRectangle width="282" height="22" as="alternateBounds" />
          </mxGeometry>
        </mxCell>
        <mxCell id="I3p1syJn4itOZXmA_7b9-88" style="shape=tableRow;horizontal=0;startSize=0;swimlaneHead=0;swimlaneBody=0;fillColor=none;collapsible=0;dropTarget=0;points=[[0,0.5],[1,0.5]];portConstraint=eastwest;top=0;left=0;right=0;bottom=0;" vertex="1" parent="I3p1syJn4itOZXmA_7b9-79">
          <mxGeometry y="69" width="390" height="22" as="geometry" />
        </mxCell>
        <mxCell id="I3p1syJn4itOZXmA_7b9-89" value="INT" style="shape=partialRectangle;connectable=0;fillColor=none;top=0;left=0;bottom=0;right=0;align=left;spacingLeft=2;overflow=hidden;fontSize=11;" vertex="1" parent="I3p1syJn4itOZXmA_7b9-88">
          <mxGeometry width="42" height="22" as="geometry">
            <mxRectangle width="42" height="22" as="alternateBounds" />
          </mxGeometry>
        </mxCell>
        <mxCell id="I3p1syJn4itOZXmA_7b9-90" value="book_id" style="shape=partialRectangle;connectable=0;fillColor=none;top=0;left=0;bottom=0;right=0;align=left;spacingLeft=2;overflow=hidden;fontSize=11;" vertex="1" parent="I3p1syJn4itOZXmA_7b9-88">
          <mxGeometry x="42" width="66" height="22" as="geometry">
            <mxRectangle width="66" height="22" as="alternateBounds" />
          </mxGeometry>
        </mxCell>
        <mxCell id="I3p1syJn4itOZXmA_7b9-91" value="Foreign Key referencing BOOKS" style="shape=partialRectangle;connectable=0;fillColor=none;top=0;left=0;bottom=0;right=0;align=left;spacingLeft=2;overflow=hidden;fontSize=11;" vertex="1" parent="I3p1syJn4itOZXmA_7b9-88">
          <mxGeometry x="108" width="282" height="22" as="geometry">
            <mxRectangle width="282" height="22" as="alternateBounds" />
          </mxGeometry>
        </mxCell>
        <mxCell id="I3p1syJn4itOZXmA_7b9-92" style="shape=tableRow;horizontal=0;startSize=0;swimlaneHead=0;swimlaneBody=0;fillColor=none;collapsible=0;dropTarget=0;points=[[0,0.5],[1,0.5]];portConstraint=eastwest;top=0;left=0;right=0;bottom=0;" vertex="1" parent="I3p1syJn4itOZXmA_7b9-79">
          <mxGeometry y="91" width="390" height="22" as="geometry" />
        </mxCell>
        <mxCell id="I3p1syJn4itOZXmA_7b9-93" value="DATE" style="shape=partialRectangle;connectable=0;fillColor=none;top=0;left=0;bottom=0;right=0;align=left;spacingLeft=2;overflow=hidden;fontSize=11;" vertex="1" parent="I3p1syJn4itOZXmA_7b9-92">
          <mxGeometry width="42" height="22" as="geometry">
            <mxRectangle width="42" height="22" as="alternateBounds" />
          </mxGeometry>
        </mxCell>
        <mxCell id="I3p1syJn4itOZXmA_7b9-94" value="loan_date" style="shape=partialRectangle;connectable=0;fillColor=none;top=0;left=0;bottom=0;right=0;align=left;spacingLeft=2;overflow=hidden;fontSize=11;" vertex="1" parent="I3p1syJn4itOZXmA_7b9-92">
          <mxGeometry x="42" width="66" height="22" as="geometry">
            <mxRectangle width="66" height="22" as="alternateBounds" />
          </mxGeometry>
        </mxCell>
        <mxCell id="I3p1syJn4itOZXmA_7b9-95" value="Date when book was loaned" style="shape=partialRectangle;connectable=0;fillColor=none;top=0;left=0;bottom=0;right=0;align=left;spacingLeft=2;overflow=hidden;fontSize=11;" vertex="1" parent="I3p1syJn4itOZXmA_7b9-92">
          <mxGeometry x="108" width="282" height="22" as="geometry">
            <mxRectangle width="282" height="22" as="alternateBounds" />
          </mxGeometry>
        </mxCell>
        <mxCell id="I3p1syJn4itOZXmA_7b9-96" style="shape=tableRow;horizontal=0;startSize=0;swimlaneHead=0;swimlaneBody=0;fillColor=none;collapsible=0;dropTarget=0;points=[[0,0.5],[1,0.5]];portConstraint=eastwest;top=0;left=0;right=0;bottom=0;" vertex="1" parent="I3p1syJn4itOZXmA_7b9-79">
          <mxGeometry y="113" width="390" height="22" as="geometry" />
        </mxCell>
        <mxCell id="I3p1syJn4itOZXmA_7b9-97" value="DATE" style="shape=partialRectangle;connectable=0;fillColor=none;top=0;left=0;bottom=0;right=0;align=left;spacingLeft=2;overflow=hidden;fontSize=11;" vertex="1" parent="I3p1syJn4itOZXmA_7b9-96">
          <mxGeometry width="42" height="22" as="geometry">
            <mxRectangle width="42" height="22" as="alternateBounds" />
          </mxGeometry>
        </mxCell>
        <mxCell id="I3p1syJn4itOZXmA_7b9-98" value="due_date" style="shape=partialRectangle;connectable=0;fillColor=none;top=0;left=0;bottom=0;right=0;align=left;spacingLeft=2;overflow=hidden;fontSize=11;" vertex="1" parent="I3p1syJn4itOZXmA_7b9-96">
          <mxGeometry x="42" width="66" height="22" as="geometry">
            <mxRectangle width="66" height="22" as="alternateBounds" />
          </mxGeometry>
        </mxCell>
        <mxCell id="I3p1syJn4itOZXmA_7b9-99" value="Due date for returning the book" style="shape=partialRectangle;connectable=0;fillColor=none;top=0;left=0;bottom=0;right=0;align=left;spacingLeft=2;overflow=hidden;fontSize=11;" vertex="1" parent="I3p1syJn4itOZXmA_7b9-96">
          <mxGeometry x="108" width="282" height="22" as="geometry">
            <mxRectangle width="282" height="22" as="alternateBounds" />
          </mxGeometry>
        </mxCell>
        <mxCell id="I3p1syJn4itOZXmA_7b9-100" style="shape=tableRow;horizontal=0;startSize=0;swimlaneHead=0;swimlaneBody=0;fillColor=none;collapsible=0;dropTarget=0;points=[[0,0.5],[1,0.5]];portConstraint=eastwest;top=0;left=0;right=0;bottom=0;" vertex="1" parent="I3p1syJn4itOZXmA_7b9-79">
          <mxGeometry y="135" width="390" height="22" as="geometry" />
        </mxCell>
        <mxCell id="I3p1syJn4itOZXmA_7b9-101" value="DATE" style="shape=partialRectangle;connectable=0;fillColor=none;top=0;left=0;bottom=0;right=0;align=left;spacingLeft=2;overflow=hidden;fontSize=11;" vertex="1" parent="I3p1syJn4itOZXmA_7b9-100">
          <mxGeometry width="42" height="22" as="geometry">
            <mxRectangle width="42" height="22" as="alternateBounds" />
          </mxGeometry>
        </mxCell>
        <mxCell id="I3p1syJn4itOZXmA_7b9-102" value="return_date" style="shape=partialRectangle;connectable=0;fillColor=none;top=0;left=0;bottom=0;right=0;align=left;spacingLeft=2;overflow=hidden;fontSize=11;" vertex="1" parent="I3p1syJn4itOZXmA_7b9-100">
          <mxGeometry x="42" width="66" height="22" as="geometry">
            <mxRectangle width="66" height="22" as="alternateBounds" />
          </mxGeometry>
        </mxCell>
        <mxCell id="I3p1syJn4itOZXmA_7b9-103" value="Date when book was returned" style="shape=partialRectangle;connectable=0;fillColor=none;top=0;left=0;bottom=0;right=0;align=left;spacingLeft=2;overflow=hidden;fontSize=11;" vertex="1" parent="I3p1syJn4itOZXmA_7b9-100">
          <mxGeometry x="108" width="282" height="22" as="geometry">
            <mxRectangle width="282" height="22" as="alternateBounds" />
          </mxGeometry>
        </mxCell>
        <mxCell id="I3p1syJn4itOZXmA_7b9-104" style="shape=tableRow;horizontal=0;startSize=0;swimlaneHead=0;swimlaneBody=0;fillColor=none;collapsible=0;dropTarget=0;points=[[0,0.5],[1,0.5]];portConstraint=eastwest;top=0;left=0;right=0;bottom=0;" vertex="1" parent="I3p1syJn4itOZXmA_7b9-79">
          <mxGeometry y="157" width="390" height="22" as="geometry" />
        </mxCell>
        <mxCell id="I3p1syJn4itOZXmA_7b9-105" value="ENUM" style="shape=partialRectangle;connectable=0;fillColor=none;top=0;left=0;bottom=0;right=0;align=left;spacingLeft=2;overflow=hidden;fontSize=11;" vertex="1" parent="I3p1syJn4itOZXmA_7b9-104">
          <mxGeometry width="42" height="22" as="geometry">
            <mxRectangle width="42" height="22" as="alternateBounds" />
          </mxGeometry>
        </mxCell>
        <mxCell id="I3p1syJn4itOZXmA_7b9-106" value="loan_status" style="shape=partialRectangle;connectable=0;fillColor=none;top=0;left=0;bottom=0;right=0;align=left;spacingLeft=2;overflow=hidden;fontSize=11;" vertex="1" parent="I3p1syJn4itOZXmA_7b9-104">
          <mxGeometry x="42" width="66" height="22" as="geometry">
            <mxRectangle width="66" height="22" as="alternateBounds" />
          </mxGeometry>
        </mxCell>
        <mxCell id="I3p1syJn4itOZXmA_7b9-107" value="Status of the loan: borrowed, returned, overdue" style="shape=partialRectangle;connectable=0;fillColor=none;top=0;left=0;bottom=0;right=0;align=left;spacingLeft=2;overflow=hidden;fontSize=11;" vertex="1" parent="I3p1syJn4itOZXmA_7b9-104">
          <mxGeometry x="108" width="282" height="22" as="geometry">
            <mxRectangle width="282" height="22" as="alternateBounds" />
          </mxGeometry>
        </mxCell>
        <mxCell id="I3p1syJn4itOZXmA_7b9-108" style="shape=tableRow;horizontal=0;startSize=0;swimlaneHead=0;swimlaneBody=0;fillColor=none;collapsible=0;dropTarget=0;points=[[0,0.5],[1,0.5]];portConstraint=eastwest;top=0;left=0;right=0;bottom=0;" vertex="1" parent="I3p1syJn4itOZXmA_7b9-79">
          <mxGeometry y="179" width="390" height="22" as="geometry" />
        </mxCell>
        <mxCell id="I3p1syJn4itOZXmA_7b9-109" value="DECIMAL" style="shape=partialRectangle;connectable=0;fillColor=none;top=0;left=0;bottom=0;right=0;align=left;spacingLeft=2;overflow=hidden;fontSize=11;" vertex="1" parent="I3p1syJn4itOZXmA_7b9-108">
          <mxGeometry width="42" height="22" as="geometry">
            <mxRectangle width="42" height="22" as="alternateBounds" />
          </mxGeometry>
        </mxCell>
        <mxCell id="I3p1syJn4itOZXmA_7b9-110" value="fines" style="shape=partialRectangle;connectable=0;fillColor=none;top=0;left=0;bottom=0;right=0;align=left;spacingLeft=2;overflow=hidden;fontSize=11;" vertex="1" parent="I3p1syJn4itOZXmA_7b9-108">
          <mxGeometry x="42" width="66" height="22" as="geometry">
            <mxRectangle width="66" height="22" as="alternateBounds" />
          </mxGeometry>
        </mxCell>
        <mxCell id="I3p1syJn4itOZXmA_7b9-111" value="Fines incurred if returned late" style="shape=partialRectangle;connectable=0;fillColor=none;top=0;left=0;bottom=0;right=0;align=left;spacingLeft=2;overflow=hidden;fontSize=11;" vertex="1" parent="I3p1syJn4itOZXmA_7b9-108">
          <mxGeometry x="108" width="282" height="22" as="geometry">
            <mxRectangle width="282" height="22" as="alternateBounds" />
          </mxGeometry>
        </mxCell>
        <mxCell id="I3p1syJn4itOZXmA_7b9-112" value="STAFF" style="shape=table;startSize=25;container=1;collapsible=0;childLayout=tableLayout;fixedRows=1;rowLines=1;fontStyle=1;align=center;resizeLast=1;fillColor=#e1d5e7;strokeColor=#9673a6;" vertex="1" parent="1">
          <mxGeometry x="873" y="53" width="302" height="179" as="geometry" />
        </mxCell>
        <mxCell id="I3p1syJn4itOZXmA_7b9-113" style="shape=tableRow;horizontal=0;startSize=0;swimlaneHead=0;swimlaneBody=0;fillColor=none;collapsible=0;dropTarget=0;points=[[0,0.5],[1,0.5]];portConstraint=eastwest;top=0;left=0;right=0;bottom=0;" vertex="1" parent="I3p1syJn4itOZXmA_7b9-112">
          <mxGeometry y="25" width="302" height="22" as="geometry" />
        </mxCell>
        <mxCell id="I3p1syJn4itOZXmA_7b9-114" value="INT" style="shape=partialRectangle;connectable=0;fillColor=none;top=0;left=0;bottom=0;right=0;align=left;spacingLeft=2;overflow=hidden;fontSize=11;" vertex="1" parent="I3p1syJn4itOZXmA_7b9-113">
          <mxGeometry width="42" height="22" as="geometry">
            <mxRectangle width="42" height="22" as="alternateBounds" />
          </mxGeometry>
        </mxCell>
        <mxCell id="I3p1syJn4itOZXmA_7b9-115" value="staff_id" style="shape=partialRectangle;connectable=0;fillColor=none;top=0;left=0;bottom=0;right=0;align=left;spacingLeft=2;overflow=hidden;fontSize=11;" vertex="1" parent="I3p1syJn4itOZXmA_7b9-113">
          <mxGeometry x="42" width="68" height="22" as="geometry">
            <mxRectangle width="68" height="22" as="alternateBounds" />
          </mxGeometry>
        </mxCell>
        <mxCell id="I3p1syJn4itOZXmA_7b9-116" value="Primary Key" style="shape=partialRectangle;connectable=0;fillColor=none;top=0;left=0;bottom=0;right=0;align=left;spacingLeft=2;overflow=hidden;fontSize=11;" vertex="1" parent="I3p1syJn4itOZXmA_7b9-113">
          <mxGeometry x="110" width="192" height="22" as="geometry">
            <mxRectangle width="192" height="22" as="alternateBounds" />
          </mxGeometry>
        </mxCell>
        <mxCell id="I3p1syJn4itOZXmA_7b9-117" style="shape=tableRow;horizontal=0;startSize=0;swimlaneHead=0;swimlaneBody=0;fillColor=none;collapsible=0;dropTarget=0;points=[[0,0.5],[1,0.5]];portConstraint=eastwest;top=0;left=0;right=0;bottom=0;" vertex="1" parent="I3p1syJn4itOZXmA_7b9-112">
          <mxGeometry y="47" width="302" height="22" as="geometry" />
        </mxCell>
        <mxCell id="I3p1syJn4itOZXmA_7b9-118" value="VARCHAR" style="shape=partialRectangle;connectable=0;fillColor=none;top=0;left=0;bottom=0;right=0;align=left;spacingLeft=2;overflow=hidden;fontSize=11;" vertex="1" parent="I3p1syJn4itOZXmA_7b9-117">
          <mxGeometry width="42" height="22" as="geometry">
            <mxRectangle width="42" height="22" as="alternateBounds" />
          </mxGeometry>
        </mxCell>
        <mxCell id="I3p1syJn4itOZXmA_7b9-119" value="name" style="shape=partialRectangle;connectable=0;fillColor=none;top=0;left=0;bottom=0;right=0;align=left;spacingLeft=2;overflow=hidden;fontSize=11;" vertex="1" parent="I3p1syJn4itOZXmA_7b9-117">
          <mxGeometry x="42" width="68" height="22" as="geometry">
            <mxRectangle width="68" height="22" as="alternateBounds" />
          </mxGeometry>
        </mxCell>
        <mxCell id="I3p1syJn4itOZXmA_7b9-120" value="Name of staff member" style="shape=partialRectangle;connectable=0;fillColor=none;top=0;left=0;bottom=0;right=0;align=left;spacingLeft=2;overflow=hidden;fontSize=11;" vertex="1" parent="I3p1syJn4itOZXmA_7b9-117">
          <mxGeometry x="110" width="192" height="22" as="geometry">
            <mxRectangle width="192" height="22" as="alternateBounds" />
          </mxGeometry>
        </mxCell>
        <mxCell id="I3p1syJn4itOZXmA_7b9-121" style="shape=tableRow;horizontal=0;startSize=0;swimlaneHead=0;swimlaneBody=0;fillColor=none;collapsible=0;dropTarget=0;points=[[0,0.5],[1,0.5]];portConstraint=eastwest;top=0;left=0;right=0;bottom=0;" vertex="1" parent="I3p1syJn4itOZXmA_7b9-112">
          <mxGeometry y="69" width="302" height="22" as="geometry" />
        </mxCell>
        <mxCell id="I3p1syJn4itOZXmA_7b9-122" value="VARCHAR" style="shape=partialRectangle;connectable=0;fillColor=none;top=0;left=0;bottom=0;right=0;align=left;spacingLeft=2;overflow=hidden;fontSize=11;" vertex="1" parent="I3p1syJn4itOZXmA_7b9-121">
          <mxGeometry width="42" height="22" as="geometry">
            <mxRectangle width="42" height="22" as="alternateBounds" />
          </mxGeometry>
        </mxCell>
        <mxCell id="I3p1syJn4itOZXmA_7b9-123" value="position" style="shape=partialRectangle;connectable=0;fillColor=none;top=0;left=0;bottom=0;right=0;align=left;spacingLeft=2;overflow=hidden;fontSize=11;" vertex="1" parent="I3p1syJn4itOZXmA_7b9-121">
          <mxGeometry x="42" width="68" height="22" as="geometry">
            <mxRectangle width="68" height="22" as="alternateBounds" />
          </mxGeometry>
        </mxCell>
        <mxCell id="I3p1syJn4itOZXmA_7b9-124" value="Position of staff member" style="shape=partialRectangle;connectable=0;fillColor=none;top=0;left=0;bottom=0;right=0;align=left;spacingLeft=2;overflow=hidden;fontSize=11;" vertex="1" parent="I3p1syJn4itOZXmA_7b9-121">
          <mxGeometry x="110" width="192" height="22" as="geometry">
            <mxRectangle width="192" height="22" as="alternateBounds" />
          </mxGeometry>
        </mxCell>
        <mxCell id="I3p1syJn4itOZXmA_7b9-125" style="shape=tableRow;horizontal=0;startSize=0;swimlaneHead=0;swimlaneBody=0;fillColor=none;collapsible=0;dropTarget=0;points=[[0,0.5],[1,0.5]];portConstraint=eastwest;top=0;left=0;right=0;bottom=0;" vertex="1" parent="I3p1syJn4itOZXmA_7b9-112">
          <mxGeometry y="91" width="302" height="22" as="geometry" />
        </mxCell>
        <mxCell id="I3p1syJn4itOZXmA_7b9-126" value="VARCHAR" style="shape=partialRectangle;connectable=0;fillColor=none;top=0;left=0;bottom=0;right=0;align=left;spacingLeft=2;overflow=hidden;fontSize=11;" vertex="1" parent="I3p1syJn4itOZXmA_7b9-125">
          <mxGeometry width="42" height="22" as="geometry">
            <mxRectangle width="42" height="22" as="alternateBounds" />
          </mxGeometry>
        </mxCell>
        <mxCell id="I3p1syJn4itOZXmA_7b9-127" value="phone" style="shape=partialRectangle;connectable=0;fillColor=none;top=0;left=0;bottom=0;right=0;align=left;spacingLeft=2;overflow=hidden;fontSize=11;" vertex="1" parent="I3p1syJn4itOZXmA_7b9-125">
          <mxGeometry x="42" width="68" height="22" as="geometry">
            <mxRectangle width="68" height="22" as="alternateBounds" />
          </mxGeometry>
        </mxCell>
        <mxCell id="I3p1syJn4itOZXmA_7b9-128" value="Phone number of staff member" style="shape=partialRectangle;connectable=0;fillColor=none;top=0;left=0;bottom=0;right=0;align=left;spacingLeft=2;overflow=hidden;fontSize=11;" vertex="1" parent="I3p1syJn4itOZXmA_7b9-125">
          <mxGeometry x="110" width="192" height="22" as="geometry">
            <mxRectangle width="192" height="22" as="alternateBounds" />
          </mxGeometry>
        </mxCell>
        <mxCell id="I3p1syJn4itOZXmA_7b9-129" style="shape=tableRow;horizontal=0;startSize=0;swimlaneHead=0;swimlaneBody=0;fillColor=none;collapsible=0;dropTarget=0;points=[[0,0.5],[1,0.5]];portConstraint=eastwest;top=0;left=0;right=0;bottom=0;" vertex="1" parent="I3p1syJn4itOZXmA_7b9-112">
          <mxGeometry y="113" width="302" height="22" as="geometry" />
        </mxCell>
        <mxCell id="I3p1syJn4itOZXmA_7b9-130" value="VARCHAR" style="shape=partialRectangle;connectable=0;fillColor=none;top=0;left=0;bottom=0;right=0;align=left;spacingLeft=2;overflow=hidden;fontSize=11;" vertex="1" parent="I3p1syJn4itOZXmA_7b9-129">
          <mxGeometry width="42" height="22" as="geometry">
            <mxRectangle width="42" height="22" as="alternateBounds" />
          </mxGeometry>
        </mxCell>
        <mxCell id="I3p1syJn4itOZXmA_7b9-131" value="email" style="shape=partialRectangle;connectable=0;fillColor=none;top=0;left=0;bottom=0;right=0;align=left;spacingLeft=2;overflow=hidden;fontSize=11;" vertex="1" parent="I3p1syJn4itOZXmA_7b9-129">
          <mxGeometry x="42" width="68" height="22" as="geometry">
            <mxRectangle width="68" height="22" as="alternateBounds" />
          </mxGeometry>
        </mxCell>
        <mxCell id="I3p1syJn4itOZXmA_7b9-132" value="Email of staff member" style="shape=partialRectangle;connectable=0;fillColor=none;top=0;left=0;bottom=0;right=0;align=left;spacingLeft=2;overflow=hidden;fontSize=11;" vertex="1" parent="I3p1syJn4itOZXmA_7b9-129">
          <mxGeometry x="110" width="192" height="22" as="geometry">
            <mxRectangle width="192" height="22" as="alternateBounds" />
          </mxGeometry>
        </mxCell>
        <mxCell id="I3p1syJn4itOZXmA_7b9-133" style="shape=tableRow;horizontal=0;startSize=0;swimlaneHead=0;swimlaneBody=0;fillColor=none;collapsible=0;dropTarget=0;points=[[0,0.5],[1,0.5]];portConstraint=eastwest;top=0;left=0;right=0;bottom=0;" vertex="1" parent="I3p1syJn4itOZXmA_7b9-112">
          <mxGeometry y="135" width="302" height="22" as="geometry" />
        </mxCell>
        <mxCell id="I3p1syJn4itOZXmA_7b9-134" value="DATE" style="shape=partialRectangle;connectable=0;fillColor=none;top=0;left=0;bottom=0;right=0;align=left;spacingLeft=2;overflow=hidden;fontSize=11;" vertex="1" parent="I3p1syJn4itOZXmA_7b9-133">
          <mxGeometry width="42" height="22" as="geometry">
            <mxRectangle width="42" height="22" as="alternateBounds" />
          </mxGeometry>
        </mxCell>
        <mxCell id="I3p1syJn4itOZXmA_7b9-135" value="hire_date" style="shape=partialRectangle;connectable=0;fillColor=none;top=0;left=0;bottom=0;right=0;align=left;spacingLeft=2;overflow=hidden;fontSize=11;" vertex="1" parent="I3p1syJn4itOZXmA_7b9-133">
          <mxGeometry x="42" width="68" height="22" as="geometry">
            <mxRectangle width="68" height="22" as="alternateBounds" />
          </mxGeometry>
        </mxCell>
        <mxCell id="I3p1syJn4itOZXmA_7b9-136" value="Date when staff member was hired" style="shape=partialRectangle;connectable=0;fillColor=none;top=0;left=0;bottom=0;right=0;align=left;spacingLeft=2;overflow=hidden;fontSize=11;" vertex="1" parent="I3p1syJn4itOZXmA_7b9-133">
          <mxGeometry x="110" width="192" height="22" as="geometry">
            <mxRectangle width="192" height="22" as="alternateBounds" />
          </mxGeometry>
        </mxCell>
        <mxCell id="I3p1syJn4itOZXmA_7b9-137" style="shape=tableRow;horizontal=0;startSize=0;swimlaneHead=0;swimlaneBody=0;fillColor=none;collapsible=0;dropTarget=0;points=[[0,0.5],[1,0.5]];portConstraint=eastwest;top=0;left=0;right=0;bottom=0;" vertex="1" parent="I3p1syJn4itOZXmA_7b9-112">
          <mxGeometry y="157" width="302" height="22" as="geometry" />
        </mxCell>
        <mxCell id="I3p1syJn4itOZXmA_7b9-138" value="DECIMAL" style="shape=partialRectangle;connectable=0;fillColor=none;top=0;left=0;bottom=0;right=0;align=left;spacingLeft=2;overflow=hidden;fontSize=11;" vertex="1" parent="I3p1syJn4itOZXmA_7b9-137">
          <mxGeometry width="42" height="22" as="geometry">
            <mxRectangle width="42" height="22" as="alternateBounds" />
          </mxGeometry>
        </mxCell>
        <mxCell id="I3p1syJn4itOZXmA_7b9-139" value="salary" style="shape=partialRectangle;connectable=0;fillColor=none;top=0;left=0;bottom=0;right=0;align=left;spacingLeft=2;overflow=hidden;fontSize=11;" vertex="1" parent="I3p1syJn4itOZXmA_7b9-137">
          <mxGeometry x="42" width="68" height="22" as="geometry">
            <mxRectangle width="68" height="22" as="alternateBounds" />
          </mxGeometry>
        </mxCell>
        <mxCell id="I3p1syJn4itOZXmA_7b9-140" value="Salary of staff member" style="shape=partialRectangle;connectable=0;fillColor=none;top=0;left=0;bottom=0;right=0;align=left;spacingLeft=2;overflow=hidden;fontSize=11;" vertex="1" parent="I3p1syJn4itOZXmA_7b9-137">
          <mxGeometry x="110" width="192" height="22" as="geometry">
            <mxRectangle width="192" height="22" as="alternateBounds" />
          </mxGeometry>
        </mxCell>
        <mxCell id="I3p1syJn4itOZXmA_7b9-141" value="CATEGORIES" style="shape=table;startSize=25;container=1;collapsible=0;childLayout=tableLayout;fixedRows=1;rowLines=1;fontStyle=1;align=center;resizeLast=1;fillColor=#e1d5e7;strokeColor=#9673a6;" vertex="1" parent="1">
          <mxGeometry x="1275" y="97" width="293" height="91" as="geometry" />
        </mxCell>
        <mxCell id="I3p1syJn4itOZXmA_7b9-142" style="shape=tableRow;horizontal=0;startSize=0;swimlaneHead=0;swimlaneBody=0;fillColor=none;collapsible=0;dropTarget=0;points=[[0,0.5],[1,0.5]];portConstraint=eastwest;top=0;left=0;right=0;bottom=0;" vertex="1" parent="I3p1syJn4itOZXmA_7b9-141">
          <mxGeometry y="25" width="293" height="22" as="geometry" />
        </mxCell>
        <mxCell id="I3p1syJn4itOZXmA_7b9-143" value="INT" style="shape=partialRectangle;connectable=0;fillColor=none;top=0;left=0;bottom=0;right=0;align=left;spacingLeft=2;overflow=hidden;fontSize=11;" vertex="1" parent="I3p1syJn4itOZXmA_7b9-142">
          <mxGeometry width="42" height="22" as="geometry">
            <mxRectangle width="42" height="22" as="alternateBounds" />
          </mxGeometry>
        </mxCell>
        <mxCell id="I3p1syJn4itOZXmA_7b9-144" value="category_id" style="shape=partialRectangle;connectable=0;fillColor=none;top=0;left=0;bottom=0;right=0;align=left;spacingLeft=2;overflow=hidden;fontSize=11;" vertex="1" parent="I3p1syJn4itOZXmA_7b9-142">
          <mxGeometry x="42" width="89" height="22" as="geometry">
            <mxRectangle width="89" height="22" as="alternateBounds" />
          </mxGeometry>
        </mxCell>
        <mxCell id="I3p1syJn4itOZXmA_7b9-145" value="Primary Key" style="shape=partialRectangle;connectable=0;fillColor=none;top=0;left=0;bottom=0;right=0;align=left;spacingLeft=2;overflow=hidden;fontSize=11;" vertex="1" parent="I3p1syJn4itOZXmA_7b9-142">
          <mxGeometry x="131" width="162" height="22" as="geometry">
            <mxRectangle width="162" height="22" as="alternateBounds" />
          </mxGeometry>
        </mxCell>
        <mxCell id="I3p1syJn4itOZXmA_7b9-146" style="shape=tableRow;horizontal=0;startSize=0;swimlaneHead=0;swimlaneBody=0;fillColor=none;collapsible=0;dropTarget=0;points=[[0,0.5],[1,0.5]];portConstraint=eastwest;top=0;left=0;right=0;bottom=0;" vertex="1" parent="I3p1syJn4itOZXmA_7b9-141">
          <mxGeometry y="47" width="293" height="22" as="geometry" />
        </mxCell>
        <mxCell id="I3p1syJn4itOZXmA_7b9-147" value="VARCHAR" style="shape=partialRectangle;connectable=0;fillColor=none;top=0;left=0;bottom=0;right=0;align=left;spacingLeft=2;overflow=hidden;fontSize=11;" vertex="1" parent="I3p1syJn4itOZXmA_7b9-146">
          <mxGeometry width="42" height="22" as="geometry">
            <mxRectangle width="42" height="22" as="alternateBounds" />
          </mxGeometry>
        </mxCell>
        <mxCell id="I3p1syJn4itOZXmA_7b9-148" value="category_name" style="shape=partialRectangle;connectable=0;fillColor=none;top=0;left=0;bottom=0;right=0;align=left;spacingLeft=2;overflow=hidden;fontSize=11;" vertex="1" parent="I3p1syJn4itOZXmA_7b9-146">
          <mxGeometry x="42" width="89" height="22" as="geometry">
            <mxRectangle width="89" height="22" as="alternateBounds" />
          </mxGeometry>
        </mxCell>
        <mxCell id="I3p1syJn4itOZXmA_7b9-149" value="Name of the book category" style="shape=partialRectangle;connectable=0;fillColor=none;top=0;left=0;bottom=0;right=0;align=left;spacingLeft=2;overflow=hidden;fontSize=11;" vertex="1" parent="I3p1syJn4itOZXmA_7b9-146">
          <mxGeometry x="131" width="162" height="22" as="geometry">
            <mxRectangle width="162" height="22" as="alternateBounds" />
          </mxGeometry>
        </mxCell>
        <mxCell id="I3p1syJn4itOZXmA_7b9-150" style="shape=tableRow;horizontal=0;startSize=0;swimlaneHead=0;swimlaneBody=0;fillColor=none;collapsible=0;dropTarget=0;points=[[0,0.5],[1,0.5]];portConstraint=eastwest;top=0;left=0;right=0;bottom=0;" vertex="1" parent="I3p1syJn4itOZXmA_7b9-141">
          <mxGeometry y="69" width="293" height="22" as="geometry" />
        </mxCell>
        <mxCell id="I3p1syJn4itOZXmA_7b9-151" value="TEXT" style="shape=partialRectangle;connectable=0;fillColor=none;top=0;left=0;bottom=0;right=0;align=left;spacingLeft=2;overflow=hidden;fontSize=11;" vertex="1" parent="I3p1syJn4itOZXmA_7b9-150">
          <mxGeometry width="42" height="22" as="geometry">
            <mxRectangle width="42" height="22" as="alternateBounds" />
          </mxGeometry>
        </mxCell>
        <mxCell id="I3p1syJn4itOZXmA_7b9-152" value="description" style="shape=partialRectangle;connectable=0;fillColor=none;top=0;left=0;bottom=0;right=0;align=left;spacingLeft=2;overflow=hidden;fontSize=11;" vertex="1" parent="I3p1syJn4itOZXmA_7b9-150">
          <mxGeometry x="42" width="89" height="22" as="geometry">
            <mxRectangle width="89" height="22" as="alternateBounds" />
          </mxGeometry>
        </mxCell>
        <mxCell id="I3p1syJn4itOZXmA_7b9-153" value="Description of the category" style="shape=partialRectangle;connectable=0;fillColor=none;top=0;left=0;bottom=0;right=0;align=left;spacingLeft=2;overflow=hidden;fontSize=11;" vertex="1" parent="I3p1syJn4itOZXmA_7b9-150">
          <mxGeometry x="131" width="162" height="22" as="geometry">
            <mxRectangle width="162" height="22" as="alternateBounds" />
          </mxGeometry>
        </mxCell>
        <mxCell id="I3p1syJn4itOZXmA_7b9-154" value="BOOK_CATEGORIES" style="shape=table;startSize=25;container=1;collapsible=0;childLayout=tableLayout;fixedRows=1;rowLines=1;fontStyle=1;align=center;resizeLast=1;fillColor=#e1d5e7;strokeColor=#9673a6;" vertex="1" parent="1">
          <mxGeometry x="1227" y="430" width="289" height="69" as="geometry" />
        </mxCell>
        <mxCell id="I3p1syJn4itOZXmA_7b9-155" style="shape=tableRow;horizontal=0;startSize=0;swimlaneHead=0;swimlaneBody=0;fillColor=none;collapsible=0;dropTarget=0;points=[[0,0.5],[1,0.5]];portConstraint=eastwest;top=0;left=0;right=0;bottom=0;" vertex="1" parent="I3p1syJn4itOZXmA_7b9-154">
          <mxGeometry y="25" width="289" height="22" as="geometry" />
        </mxCell>
        <mxCell id="I3p1syJn4itOZXmA_7b9-156" value="INT" style="shape=partialRectangle;connectable=0;fillColor=none;top=0;left=0;bottom=0;right=0;align=left;spacingLeft=2;overflow=hidden;fontSize=11;" vertex="1" parent="I3p1syJn4itOZXmA_7b9-155">
          <mxGeometry width="18" height="22" as="geometry">
            <mxRectangle width="18" height="22" as="alternateBounds" />
          </mxGeometry>
        </mxCell>
        <mxCell id="I3p1syJn4itOZXmA_7b9-157" value="book_id" style="shape=partialRectangle;connectable=0;fillColor=none;top=0;left=0;bottom=0;right=0;align=left;spacingLeft=2;overflow=hidden;fontSize=11;" vertex="1" parent="I3p1syJn4itOZXmA_7b9-155">
          <mxGeometry x="18" width="67" height="22" as="geometry">
            <mxRectangle width="67" height="22" as="alternateBounds" />
          </mxGeometry>
        </mxCell>
        <mxCell id="I3p1syJn4itOZXmA_7b9-158" value="Foreign Key referencing BOOKS" style="shape=partialRectangle;connectable=0;fillColor=none;top=0;left=0;bottom=0;right=0;align=left;spacingLeft=2;overflow=hidden;fontSize=11;" vertex="1" parent="I3p1syJn4itOZXmA_7b9-155">
          <mxGeometry x="85" width="204" height="22" as="geometry">
            <mxRectangle width="204" height="22" as="alternateBounds" />
          </mxGeometry>
        </mxCell>
        <mxCell id="I3p1syJn4itOZXmA_7b9-159" style="shape=tableRow;horizontal=0;startSize=0;swimlaneHead=0;swimlaneBody=0;fillColor=none;collapsible=0;dropTarget=0;points=[[0,0.5],[1,0.5]];portConstraint=eastwest;top=0;left=0;right=0;bottom=0;" vertex="1" parent="I3p1syJn4itOZXmA_7b9-154">
          <mxGeometry y="47" width="289" height="22" as="geometry" />
        </mxCell>
        <mxCell id="I3p1syJn4itOZXmA_7b9-160" value="INT" style="shape=partialRectangle;connectable=0;fillColor=none;top=0;left=0;bottom=0;right=0;align=left;spacingLeft=2;overflow=hidden;fontSize=11;" vertex="1" parent="I3p1syJn4itOZXmA_7b9-159">
          <mxGeometry width="18" height="22" as="geometry">
            <mxRectangle width="18" height="22" as="alternateBounds" />
          </mxGeometry>
        </mxCell>
        <mxCell id="I3p1syJn4itOZXmA_7b9-161" value="category_id" style="shape=partialRectangle;connectable=0;fillColor=none;top=0;left=0;bottom=0;right=0;align=left;spacingLeft=2;overflow=hidden;fontSize=11;" vertex="1" parent="I3p1syJn4itOZXmA_7b9-159">
          <mxGeometry x="18" width="67" height="22" as="geometry">
            <mxRectangle width="67" height="22" as="alternateBounds" />
          </mxGeometry>
        </mxCell>
        <mxCell id="I3p1syJn4itOZXmA_7b9-162" value="Foreign Key referencing CATEGORIES" style="shape=partialRectangle;connectable=0;fillColor=none;top=0;left=0;bottom=0;right=0;align=left;spacingLeft=2;overflow=hidden;fontSize=11;" vertex="1" parent="I3p1syJn4itOZXmA_7b9-159">
          <mxGeometry x="85" width="204" height="22" as="geometry">
            <mxRectangle width="204" height="22" as="alternateBounds" />
          </mxGeometry>
        </mxCell>
        <mxCell id="I3p1syJn4itOZXmA_7b9-163" value="borrows" style="curved=1;startArrow=ERmandOne;startSize=10;;endArrow=ERmany;endSize=10;;exitX=0.5;exitY=1;entryX=0.39;entryY=0;rounded=0;fillColor=#e1d5e7;strokeColor=#9673a6;" edge="1" parent="1" source="I3p1syJn4itOZXmA_7b9-1" target="I3p1syJn4itOZXmA_7b9-79">
          <mxGeometry relative="1" as="geometry">
            <Array as="points">
              <mxPoint x="189" y="314" />
            </Array>
          </mxGeometry>
        </mxCell>
        <mxCell id="I3p1syJn4itOZXmA_7b9-164" value="is loaned" style="curved=1;startArrow=ERmandOne;startSize=10;;endArrow=ERmany;endSize=10;;exitX=0.13;exitY=1;entryX=0.84;entryY=0;rounded=0;fillColor=#e1d5e7;strokeColor=#9673a6;" edge="1" parent="1" source="I3p1syJn4itOZXmA_7b9-38" target="I3p1syJn4itOZXmA_7b9-79">
          <mxGeometry relative="1" as="geometry">
            <Array as="points">
              <mxPoint x="453" y="314" />
            </Array>
          </mxGeometry>
        </mxCell>
        <mxCell id="I3p1syJn4itOZXmA_7b9-165" value="belongs to" style="curved=1;startArrow=ERmandOne;startSize=10;;endArrow=ERmany;endSize=10;;exitX=0.97;exitY=0.81;entryX=0.18;entryY=0;rounded=0;fillColor=#e1d5e7;strokeColor=#9673a6;" edge="1" parent="1" source="I3p1syJn4itOZXmA_7b9-38" target="I3p1syJn4itOZXmA_7b9-154">
          <mxGeometry relative="1" as="geometry">
            <Array as="points">
              <mxPoint x="969" y="314" />
            </Array>
          </mxGeometry>
        </mxCell>
        <mxCell id="I3p1syJn4itOZXmA_7b9-166" value="includes" style="curved=1;startArrow=ERmandOne;startSize=10;;endArrow=ERmany;endSize=10;;exitX=0.5;exitY=1;entryX=0.54;entryY=0;rounded=0;fillColor=#e1d5e7;strokeColor=#9673a6;" edge="1" parent="1" source="I3p1syJn4itOZXmA_7b9-141" target="I3p1syJn4itOZXmA_7b9-154">
          <mxGeometry relative="1" as="geometry">
            <Array as="points">
              <mxPoint x="1421" y="314" />
            </Array>
          </mxGeometry>
        </mxCell>
      </root>
    </mxGraphModel>
  </diagram>
</mxfile>
